<svg xmlns="http://www.w3.org/2000/svg" width="1024" height="1024" viewBox="230 350 565 325">
    <g>
        <path d="M 376.26 610.62 C376.61,613.70 376.39,615.00 375.52,615.00 C374.77,615.00 374.04,612.96 373.68,609.90 C373.14,605.39 373.47,604.05 376.56,598.15 C378.48,594.49 380.83,590.34 381.77,588.92 C388.53,578.82 390.08,576.23 390.63,574.17 C390.98,572.88 392.33,570.77 393.63,569.46 C394.93,568.16 396.00,565.97 396.00,564.60 C396.00,563.24 396.47,561.83 397.04,561.47 C397.62,561.12 398.78,559.10 399.62,556.99 C400.46,554.88 401.80,552.91 402.58,552.61 C403.36,552.31 404.00,551.33 404.00,550.44 C404.00,549.55 404.90,547.67 406.00,546.28 C407.09,544.88 408.44,542.11 408.98,540.12 C409.53,538.13 411.78,534.13 413.99,531.23 C416.19,528.33 418.00,525.32 418.00,524.54 C418.00,523.75 418.84,522.53 419.86,521.81 C420.93,521.06 422.22,518.22 422.87,515.17 C423.50,512.24 424.45,509.03 424.98,508.03 C425.81,506.49 425.47,506.12 422.73,505.61 C420.95,505.28 397.71,505.17 371.07,505.35 C336.09,505.59 321.51,505.36 318.57,504.51 C315.43,503.60 313.82,502.28 311.50,498.72 C309.85,496.18 307.53,492.62 306.35,490.80 C305.16,488.99 301.62,482.55 298.48,476.50 C295.34,470.45 292.18,464.83 291.46,464.00 C290.74,463.17 289.86,461.31 289.49,459.84 C289.13,458.38 287.70,456.13 286.33,454.84 C284.95,453.56 283.14,450.92 282.29,449.00 C280.73,445.43 279.89,438.81 281.10,439.56 C281.46,439.79 289.35,453.48 298.63,469.99 C312.77,495.16 316.00,500.25 318.65,501.50 C321.33,502.78 330.05,503.00 377.01,503.00 C420.76,503.00 432.11,502.74 431.73,501.75 C431.31,500.66 412.11,466.46 400.85,446.75 C398.73,443.04 395.27,436.96 393.15,433.25 C391.03,429.54 385.70,420.20 381.31,412.50 C376.91,404.80 370.49,393.55 367.05,387.50 C363.60,381.45 359.31,374.02 357.51,371.00 C355.72,367.98 353.47,363.92 352.51,362.00 C351.55,360.08 349.61,357.26 348.20,355.75 L 345.63 353.00 L 240.11 353.00 L 238.56 355.22 C237.70,356.44 237.00,358.32 237.00,359.40 C237.00,361.25 258.14,399.71 273.14,425.14 C276.91,431.55 280.00,437.06 280.00,437.39 C280.00,437.73 279.10,438.00 278.00,438.00 C276.68,438.00 276.00,437.33 276.00,436.05 C276.00,433.62 271.96,425.93 268.56,421.89 C267.15,420.22 266.00,418.31 266.00,417.66 C266.00,417.01 265.10,415.92 264.00,415.23 C262.90,414.55 262.00,412.93 262.00,411.65 C262.00,410.36 261.10,408.50 260.00,407.50 C258.90,406.50 258.00,404.74 258.00,403.59 C258.00,402.43 257.13,400.94 256.07,400.28 C255.01,399.61 253.55,397.99 252.82,396.67 C252.09,395.35 250.27,391.99 248.77,389.21 C247.27,386.42 245.58,383.86 245.02,383.51 C244.46,383.17 244.00,381.54 244.00,379.89 C244.00,377.91 243.12,376.15 241.37,374.65 C239.73,373.23 238.51,370.92 238.12,368.44 C237.62,365.35 236.83,364.17 234.41,362.96 C231.80,361.65 231.48,361.10 232.28,359.30 C232.80,358.13 234.03,356.97 235.00,356.71 C235.98,356.46 237.39,354.95 238.15,353.37 L 239.53 350.50 L 293.33 350.43 C345.13,350.37 347.16,350.43 348.14,352.26 C348.70,353.30 349.81,354.90 350.61,355.83 C354.93,360.77 357.00,364.00 357.00,365.77 C357.00,366.86 357.70,368.34 358.56,369.05 C359.41,369.76 360.79,371.73 361.61,373.42 C364.11,378.57 366.38,382.33 369.22,386.06 C370.72,388.01 372.84,391.64 373.93,394.12 C375.03,396.60 376.84,399.45 377.96,400.47 C379.10,401.50 380.00,403.56 380.00,405.15 C380.00,406.94 380.76,408.44 382.07,409.24 C383.21,409.93 384.78,411.85 385.55,413.50 C387.06,416.72 388.28,418.79 391.41,423.47 C392.50,425.11 393.30,427.68 393.18,429.18 C393.05,430.99 393.62,432.26 394.87,432.93 C395.92,433.49 397.07,435.16 397.45,436.64 C397.82,438.13 398.99,440.44 400.05,441.79 C401.11,443.13 401.74,444.61 401.45,445.07 C401.17,445.53 402.08,446.66 403.47,447.57 C404.86,448.48 406.00,450.04 406.00,451.03 C406.00,454.08 407.17,456.12 409.42,456.97 C410.90,457.53 411.95,459.29 412.81,462.65 C413.50,465.32 415.62,469.48 417.53,471.90 C419.44,474.31 421.00,476.87 421.00,477.60 C421.00,478.83 423.64,483.30 427.72,488.99 C428.70,490.35 429.73,492.60 430.01,493.97 C430.87,498.23 433.73,497.70 434.98,493.06 C435.76,490.17 436.61,489.00 437.93,489.00 C440.69,489.00 441.15,486.46 438.92,483.63 C437.27,481.53 437.18,480.99 438.39,480.31 C439.18,479.87 441.77,477.02 444.16,474.00 C446.54,470.98 448.84,468.35 449.27,468.16 C450.52,467.61 453.00,462.27 453.00,460.12 C453.00,459.03 453.85,457.87 454.88,457.54 C455.96,457.20 457.02,455.63 457.37,453.89 C457.71,452.21 458.89,449.69 459.99,448.28 C461.10,446.88 462.00,445.19 462.00,444.52 C462.00,443.85 462.90,442.50 464.00,441.50 C465.10,440.50 466.00,439.08 466.00,438.34 C466.00,437.59 466.90,436.21 468.00,435.27 C470.20,433.38 470.77,427.17 468.92,425.32 C468.32,424.72 468.01,423.17 468.22,421.87 L 468.62 419.50 L 469.93 422.17 C470.73,423.79 471.80,424.63 472.65,424.30 C474.04,423.77 479.00,414.32 479.00,412.21 C479.00,411.60 480.12,409.89 481.50,408.41 C482.88,406.92 484.00,405.05 484.00,404.25 C484.00,403.45 485.12,401.45 486.50,399.82 C487.88,398.18 489.00,396.16 489.00,395.33 C489.00,393.49 495.16,383.00 496.23,383.00 C496.66,383.00 497.00,382.13 497.00,381.07 C497.00,380.01 498.38,378.15 500.08,376.94 C502.46,375.25 503.02,374.24 502.58,372.45 C502.19,370.90 502.75,369.24 504.32,367.33 C505.59,365.77 507.18,363.14 507.85,361.47 C508.52,359.80 510.51,356.81 512.28,354.83 L 515.50 351.22 L 559.50 350.74 C583.70,350.47 607.63,350.54 612.69,350.88 C621.07,351.45 622.14,351.76 624.94,354.44 C629.27,358.59 628.76,363.57 623.31,370.30 C622.07,371.84 619.16,377.01 616.86,381.80 C614.56,386.58 612.08,390.95 611.35,391.50 C609.38,392.98 606.00,400.08 606.00,402.74 C606.00,404.29 605.17,405.36 603.48,406.01 C602.10,406.53 600.49,408.21 599.91,409.73 C599.33,411.25 598.16,413.28 597.29,414.23 C596.01,415.65 595.96,416.24 596.99,417.49 C597.96,418.66 598.59,418.75 599.63,417.89 C600.38,417.27 601.00,416.31 601.00,415.77 C601.00,415.23 602.12,413.45 603.50,411.82 C604.88,410.18 606.00,408.24 606.00,407.49 C606.00,406.75 607.35,405.17 609.00,404.00 C610.80,402.72 612.00,400.97 612.00,399.63 C612.00,398.06 614.05,395.80 618.93,391.98 C623.30,388.57 626.64,385.02 627.95,382.38 C629.29,379.70 630.92,377.99 632.50,377.59 C634.02,377.21 635.21,376.01 635.59,374.49 C635.93,373.12 637.40,371.44 638.86,370.74 C640.38,370.02 641.64,368.48 641.83,367.12 C642.02,365.83 642.99,364.55 643.99,364.29 C646.17,363.72 652.00,356.72 652.00,354.68 C652.00,353.89 653.46,352.63 655.25,351.89 C658.45,350.55 663.04,350.52 779.71,350.96 C790.20,351.00 791.08,351.64 791.18,359.26 C791.23,362.85 790.74,363.84 787.62,366.46 C785.63,368.13 784.00,369.95 784.00,370.50 C784.00,371.05 781.09,374.13 777.53,377.35 C773.98,380.57 770.77,384.17 770.41,385.35 C770.04,386.53 767.83,389.56 765.49,392.08 C763.16,394.59 760.11,398.46 758.71,400.66 C756.20,404.64 750.62,410.00 749.00,410.00 C748.03,410.00 736.85,423.54 735.08,426.84 C734.45,428.03 733.28,429.00 732.48,429.00 C731.68,429.00 730.38,430.46 729.59,432.25 C728.81,434.04 725.21,438.61 721.60,442.40 C717.99,446.20 714.79,450.07 714.50,451.00 C714.20,451.93 712.84,453.21 711.47,453.83 C710.09,454.46 708.45,456.10 707.82,457.49 C707.19,458.87 706.15,460.00 705.50,460.00 C703.40,460.00 699.14,465.61 700.09,467.12 C701.91,469.99 701.14,471.28 697.98,470.65 C695.81,470.21 694.54,470.53 693.46,471.77 C688.88,477.06 686.00,480.87 685.98,481.63 C685.97,482.11 684.10,484.05 681.83,485.94 C679.55,487.82 678.10,488.65 678.60,487.76 C679.57,486.04 702.98,459.04 722.50,437.13 C729.10,429.72 739.86,417.55 746.41,410.08 C748.37,407.85 750.25,405.71 752.04,403.67 C786.28,364.65 791.00,359.27 789.78,356.57 C789.52,356.00 788.99,355.55 788.43,354.92 C786.75,353.07 784.50,353.00 722.57,353.00 C667.57,353.00 658.14,353.21 656.33,354.48 C655.17,355.29 649.12,362.16 642.88,369.73 C627.89,387.94 609.26,409.50 600.14,419.19 C593.48,426.27 592.90,427.20 594.14,428.88 C595.66,430.96 607.42,446.21 614.74,455.60 C642.70,491.47 645.25,495.00 643.15,495.00 C641.23,495.00 631.00,483.24 631.00,481.02 C631.00,480.46 630.13,479.13 629.08,478.08 C628.02,477.02 626.64,475.20 626.01,474.03 C625.39,472.86 623.83,471.50 622.54,471.02 C621.07,470.46 619.19,467.97 617.47,464.31 C615.97,461.12 613.11,456.85 611.12,454.83 C605.17,448.80 603.82,446.94 602.86,443.47 C602.36,441.65 600.44,438.83 598.58,437.21 C596.73,435.58 594.91,433.29 594.54,432.12 C594.10,430.74 593.03,430.00 591.49,430.00 C588.49,430.00 587.75,431.22 587.82,436.03 C587.86,439.24 587.51,439.93 585.70,440.19 C584.06,440.42 583.38,441.39 582.94,444.13 C582.37,447.68 576.74,456.00 574.92,456.00 C574.41,456.00 574.00,457.25 574.00,458.78 C574.00,460.31 573.40,462.44 572.66,463.53 C571.92,464.61 569.58,468.65 567.46,472.50 C565.35,476.35 562.46,481.59 561.06,484.14 C559.65,486.69 557.20,491.19 555.61,494.14 C554.02,497.09 551.86,500.11 550.80,500.85 C549.49,501.77 548.98,503.12 549.19,505.14 L 549.50 508.09 L 600.75 508.40 C642.22,508.65 652.00,508.46 652.00,507.41 C652.00,506.70 651.55,505.84 651.00,505.50 C650.45,505.16 650.02,504.12 650.04,503.19 C650.07,502.01 651.13,502.68 653.54,505.42 C655.44,507.57 657.00,509.71 657.00,510.17 C657.00,510.62 631.58,511.00 600.50,511.00 C559.11,511.00 544.00,510.70 544.00,509.87 C544.00,509.25 544.86,507.33 545.92,505.62 C546.97,503.90 552.76,493.50 558.78,482.50 C564.79,471.50 572.09,458.23 574.99,453.00 C577.89,447.77 586.10,432.70 593.24,419.50 C600.37,406.30 610.44,388.04 615.60,378.92 C625.29,361.84 626.60,357.74 623.43,354.57 C622.04,353.18 615.77,353.00 569.52,353.00 L 517.18 353.00 L 514.52 356.15 C513.06,357.89 510.26,362.50 508.30,366.40 C506.33,370.31 501.78,378.67 498.19,385.00 C494.59,391.33 488.87,401.67 485.48,408.00 C482.08,414.33 472.88,430.98 465.02,445.00 C450.19,471.48 436.61,496.09 429.72,509.00 C427.51,513.12 421.20,524.60 415.69,534.50 C410.18,544.40 402.09,559.03 397.72,567.00 C393.35,574.97 388.32,583.97 386.54,587.00 C376.94,603.34 375.75,606.07 376.26,610.62 ZM 454.50 671.29 C450.87,672.42 438.70,672.70 426.50,671.94 C418.89,671.46 419.98,671.35 433.60,671.19 C434.43,671.18 435.22,671.17 435.97,671.16 C444.05,671.08 448.50,671.04 451.99,669.18 C456.59,666.72 459.50,661.07 466.85,647.96 C481.77,621.33 504.34,581.08 506.64,577.00 C507.72,575.08 516.19,559.66 525.46,542.75 C534.73,525.84 542.65,512.00 543.07,512.00 C543.68,512.00 567.58,545.03 570.32,549.67 C570.82,550.50 570.24,550.62 568.26,550.07 C566.43,549.57 565.60,548.75 565.80,547.63 C565.97,546.70 563.46,542.94 560.19,539.22 C556.93,535.52 553.98,531.26 553.62,529.75 C553.21,528.06 552.29,527.00 551.23,527.00 C549.77,527.00 549.54,527.83 549.77,532.25 L 550.04 537.50 L 548.06 534.00 C545.52,529.50 545.50,527.36 548.00,526.71 C550.77,525.99 550.50,523.37 547.35,520.45 C544.26,517.58 541.17,517.27 540.37,519.75 C538.82,524.58 531.49,538.65 529.97,539.72 C529.02,540.40 527.55,542.65 526.70,544.72 C525.86,546.80 524.23,549.28 523.08,550.24 C521.94,551.20 521.00,552.77 520.99,553.74 C520.99,554.71 520.09,556.85 519.00,558.50 C517.91,560.15 517.01,562.21 517.01,563.08 C517.00,563.94 515.88,565.71 514.50,567.00 C513.12,568.29 512.00,569.88 512.00,570.54 C512.00,571.19 511.07,572.91 509.93,574.36 C508.57,576.09 507.98,578.09 508.18,580.24 C508.47,583.15 508.20,583.53 505.75,583.82 C503.44,584.08 503.00,584.61 503.00,587.10 C503.00,591.12 500.79,596.01 497.68,598.88 C496.26,600.18 494.82,602.54 494.47,604.11 C494.13,605.69 493.42,607.24 492.90,607.56 C492.37,607.89 490.05,611.76 487.72,616.16 C485.40,620.57 482.63,625.82 481.56,627.84 C480.49,629.85 479.02,632.10 478.30,632.83 C477.58,633.56 475.91,636.48 474.59,639.33 C473.27,642.17 471.25,645.28 470.10,646.24 C468.81,647.31 468.00,649.15 468.00,651.01 C468.00,653.34 467.41,654.27 465.48,655.01 C463.42,655.79 463.07,656.43 463.58,658.45 C464.06,660.38 463.53,661.55 461.20,663.72 C459.55,665.25 458.04,667.37 457.85,668.43 C457.65,669.54 456.23,670.75 454.50,671.29 ZM 701.00 672.24 C697.97,672.65 686.28,672.88 675.00,672.74 C655.10,672.51 654.43,672.43 652.15,670.19 C650.34,668.42 649.13,668.03 646.90,668.52 C644.45,669.06 644.00,668.85 644.00,667.14 C644.00,666.03 644.45,664.84 645.00,664.50 C646.94,663.30 645.96,660.80 642.00,656.88 C639.80,654.70 638.00,652.51 638.00,652.01 C638.00,651.50 635.75,648.08 633.00,644.40 C630.25,640.72 628.00,636.64 628.00,635.33 C628.00,633.71 627.20,632.65 625.50,632.00 C623.04,631.07 619.01,625.66 619.00,623.29 C619.00,621.29 613.99,614.55 611.93,613.78 C610.86,613.39 610.00,612.12 610.00,610.97 C610.00,607.82 608.17,605.02 605.44,603.98 C604.02,603.44 603.00,602.24 603.00,601.13 C603.00,600.08 602.34,598.96 601.53,598.65 C600.72,598.34 599.40,596.49 598.58,594.54 C597.77,592.59 596.64,591.00 596.08,591.00 C595.51,591.00 594.30,589.55 593.39,587.79 C592.48,586.02 590.66,583.74 589.36,582.71 C588.06,581.69 587.00,580.06 587.00,579.10 C587.00,577.25 581.29,568.00 580.15,568.00 C579.17,568.00 576.91,564.11 576.43,561.64 C576.21,560.46 575.41,559.05 574.66,558.50 C573.33,557.52 571.41,553.00 572.32,553.00 C572.72,553.00 580.65,564.08 595.50,585.41 C598.25,589.36 602.88,595.94 605.78,600.04 C623.22,624.67 633.33,639.24 642.28,652.63 C647.84,660.95 653.32,668.38 654.45,669.13 C655.99,670.16 662.69,670.62 681.50,671.00 C698.64,671.34 704.77,671.73 701.00,672.24 ZM 789.42 670.08 L 786.84 672.50 L 757.17 672.50 C740.85,672.50 724.58,672.24 721.00,671.92 C717.42,671.61 730.49,671.27 750.03,671.17 C780.37,671.03 785.88,670.77 787.78,669.44 C789.00,668.59 790.00,666.99 790.00,665.90 C790.00,663.98 769.32,639.46 723.18,586.66 C718.05,580.80 714.13,576.00 714.46,576.00 C716.29,576.00 725.80,584.71 727.50,587.94 C728.60,590.03 732.01,594.17 735.09,597.14 C738.16,600.12 740.98,603.80 741.36,605.32 C741.75,606.84 742.79,608.37 743.69,608.71 C744.58,609.05 747.35,611.28 749.84,613.67 C752.32,616.05 755.13,618.00 756.07,618.00 C757.33,618.00 757.95,619.20 758.46,622.59 C759.00,626.21 760.24,628.39 764.32,632.91 C767.17,636.06 770.87,640.18 772.54,642.07 C774.21,643.96 777.47,647.04 779.79,648.93 C782.10,650.81 784.00,652.94 784.00,653.65 C784.00,654.37 785.15,655.71 786.55,656.63 C789.38,658.48 792.00,662.88 792.00,665.78 C792.00,666.81 790.84,668.74 789.42,670.08 ZM 713.24 572.47 C713.51,573.86 713.60,575.00 713.45,575.00 C713.30,575.00 708.76,569.94 703.36,563.75 C678.34,535.04 667.09,522.06 662.71,516.82 L 657.97 511.14 L 662.90 505.32 C672.00,494.58 675.91,490.49 675.96,491.68 C675.98,492.33 675.38,493.47 674.63,494.23 C673.88,494.98 672.95,496.58 672.56,497.80 C672.18,499.01 671.09,500.00 670.13,500.00 C667.75,500.00 666.00,501.96 666.00,504.63 C666.00,505.95 665.22,507.11 664.09,507.47 C659.76,508.85 659.09,513.27 663.06,514.30 C664.11,514.58 665.42,515.98 665.97,517.42 C666.52,518.86 668.01,520.43 669.29,520.92 C672.04,521.97 676.08,527.04 679.68,533.99 C681.69,537.85 682.82,539.00 684.64,539.00 C686.50,539.00 687.00,539.54 687.00,541.52 C687.00,543.30 687.74,544.33 689.50,545.00 C690.91,545.54 692.00,546.75 692.00,547.78 C692.00,549.82 697.90,556.00 699.85,556.00 C700.54,556.00 701.56,557.30 702.11,558.90 C702.67,560.49 703.99,562.03 705.05,562.30 C706.11,562.58 707.41,563.95 707.94,565.34 C708.47,566.74 709.77,568.34 710.83,568.91 C711.89,569.48 712.97,571.08 713.24,572.47 ZM 415.46 672.09 C412.36,673.31 411.70,673.07 408.30,669.51 C406.54,667.67 403.87,665.56 402.38,664.83 C400.48,663.90 399.62,662.69 399.55,660.80 C399.49,659.31 398.44,657.03 397.22,655.73 C396.00,654.43 395.00,652.63 395.00,651.72 C395.00,650.82 394.14,649.27 393.08,648.29 C392.03,647.31 391.01,644.92 390.83,643.00 C390.61,640.68 389.83,639.20 388.50,638.60 C386.38,637.65 381.68,628.59 378.06,618.48 L 376.99 615.50 L 378.97 617.83 C380.05,619.11 382.82,623.61 385.11,627.83 C387.40,632.05 390.49,637.53 391.99,640.00 C393.49,642.47 397.52,649.54 400.96,655.70 C407.23,666.94 409.39,669.31 414.61,670.62 C417.13,671.25 417.22,671.40 415.46,672.09 ZM 469.64 0.00 L 983.00 0.00 C944.63,0.00 942.00,0.11 941.97,1.75 C941.94,3.42 941.87,3.42 940.61,1.75 C939.35,0.09 915.74,0.00 469.64,0.00 ZM 373.00 617.00 C373.00,619.11 371.55,619.69 370.50,618.00 C369.77,616.82 370.72,615.00 372.06,615.00 C372.58,615.00 373.00,615.90 373.00,617.00 ZM 583.50 585.00 C583.50,585.73 582.94,586.52 582.25,586.75 C581.51,587.00 581.00,586.29 581.00,585.00 C581.00,583.71 581.51,583.00 582.25,583.25 C582.94,583.48 583.50,584.27 583.50,585.00 ZM 557.00 504.94 C557.00,506.20 555.44,507.11 554.64,506.31 C553.51,505.18 553.95,504.00 555.50,504.00 C556.33,504.00 557.00,504.42 557.00,504.94 Z" fill="rgb(21,50,62)"/>
        <path d="M 454.50 671.29 C456.23,670.75 457.65,669.54 457.85,668.43 C458.04,667.37 459.55,665.25 461.20,663.72 C463.53,661.55 464.06,660.38 463.58,658.45 C463.07,656.43 463.42,655.79 465.48,655.01 C467.41,654.27 468.00,653.34 468.00,651.01 C468.00,649.15 468.81,647.31 470.10,646.24 C471.25,645.28 473.27,642.17 474.59,639.33 C475.91,636.48 477.58,633.56 478.30,632.83 C479.02,632.10 480.49,629.85 481.56,627.84 C482.63,625.82 485.40,620.57 487.72,616.16 C490.05,611.76 492.37,607.89 492.90,607.56 C493.42,607.24 494.13,605.69 494.47,604.11 C494.82,602.54 496.26,600.18 497.68,598.88 C500.79,596.01 503.00,591.12 503.00,587.10 C503.00,584.61 503.44,584.08 505.75,583.82 C508.20,583.53 508.47,583.15 508.18,580.24 C507.98,578.09 508.57,576.09 509.93,574.36 C511.07,572.91 512.00,571.19 512.00,570.54 C512.00,569.88 513.12,568.29 514.50,567.00 C515.88,565.71 517.00,563.94 517.01,563.08 C517.01,562.21 517.91,560.15 519.00,558.50 C520.09,556.85 520.99,554.71 520.99,553.74 C521.00,552.77 521.94,551.20 523.08,550.24 C524.23,549.28 525.86,546.80 526.70,544.72 C527.55,542.65 529.02,540.40 529.97,539.72 C531.49,538.65 538.82,524.58 540.37,519.75 C541.17,517.27 544.26,517.58 547.35,520.45 C550.50,523.37 550.77,525.99 548.00,526.71 C545.50,527.36 545.52,529.50 548.06,534.00 L 550.04 537.50 L 549.77 532.25 C549.54,527.83 549.77,527.00 551.23,527.00 C552.29,527.00 553.21,528.06 553.62,529.75 C553.98,531.26 556.93,535.52 560.19,539.22 C563.46,542.94 565.97,546.70 565.80,547.63 C565.60,548.75 566.43,549.57 568.26,550.07 C570.24,550.62 570.82,550.50 570.32,549.67 C569.95,549.04 569.19,547.89 568.16,546.38 C576.14,557.66 585.51,571.02 595.50,585.40 C598.25,589.35 602.88,595.94 605.78,600.04 C602.88,595.94 598.25,589.36 595.50,585.41 C580.65,564.08 572.72,553.00 572.32,553.00 C571.41,553.00 573.33,557.52 574.66,558.50 C575.41,559.05 576.21,560.46 576.43,561.64 C576.91,564.11 579.17,568.00 580.15,568.00 C581.29,568.00 587.00,577.25 587.00,579.10 C587.00,580.06 588.06,581.69 589.36,582.71 C590.66,583.74 592.48,586.02 593.39,587.79 C594.30,589.55 595.51,591.00 596.08,591.00 C596.64,591.00 597.77,592.59 598.58,594.54 C599.40,596.49 600.72,598.34 601.53,598.65 C602.34,598.96 603.00,600.08 603.00,601.13 C603.00,602.24 604.02,603.44 605.44,603.98 C608.17,605.02 610.00,607.82 610.00,610.97 C610.00,612.12 610.86,613.39 611.93,613.78 C613.99,614.55 619.00,621.29 619.00,623.29 C619.01,625.66 623.04,631.07 625.50,632.00 C627.20,632.65 628.00,633.71 628.00,635.33 C628.00,636.64 630.25,640.72 633.00,644.40 C635.75,648.08 638.00,651.50 638.00,652.01 C638.00,652.51 639.80,654.70 642.00,656.88 C645.96,660.80 646.94,663.30 645.00,664.50 C644.45,664.84 644.00,666.03 644.00,667.14 C644.00,668.85 644.45,669.06 646.90,668.52 C649.13,668.03 650.34,668.42 652.15,670.19 C654.43,672.43 655.10,672.51 675.00,672.74 C686.28,672.88 697.97,672.65 701.00,672.24 C704.77,671.73 698.64,671.34 681.50,671.00 C662.69,670.62 655.99,670.16 654.45,669.13 C656.12,670.25 668.42,670.55 720.88,670.78 C777.69,671.02 785.54,670.87 787.63,669.51 C788.42,668.99 789.12,668.19 789.56,667.40 C789.15,668.17 788.50,668.94 787.78,669.44 C785.88,670.77 780.37,671.03 750.03,671.17 C730.49,671.27 717.42,671.61 721.00,671.92 C724.58,672.24 740.85,672.50 757.17,672.50 L 786.84 672.50 L 789.42 670.08 C790.84,668.74 792.00,666.81 792.00,665.78 C792.00,662.88 789.38,658.48 786.55,656.63 C785.15,655.71 784.00,654.37 784.00,653.65 C784.00,652.94 782.10,650.81 779.79,648.93 C777.47,647.04 774.21,643.96 772.54,642.07 C770.87,640.18 767.17,636.06 764.32,632.91 C760.24,628.39 759.00,626.21 758.46,622.59 C757.95,619.20 757.33,618.00 756.07,618.00 C755.13,618.00 752.32,616.05 749.84,613.67 C747.35,611.28 744.58,609.05 743.69,608.71 C742.79,608.37 741.75,606.84 741.36,605.32 C740.98,603.80 738.16,600.12 735.09,597.14 C732.01,594.17 728.60,590.03 727.50,587.94 C725.80,584.71 716.29,576.00 714.46,576.00 C714.26,576.00 715.61,577.75 717.84,580.42 C716.28,578.62 714.68,576.79 713.06,574.91 C710.20,571.62 707.06,568.00 703.86,564.32 C709.03,570.24 713.30,575.00 713.45,575.00 C713.60,575.00 713.51,573.86 713.24,572.47 C712.97,571.08 711.89,569.48 710.83,568.91 C709.77,568.34 708.47,566.74 707.94,565.34 C707.41,563.95 706.11,562.58 705.05,562.30 C703.99,562.03 702.67,560.49 702.11,558.90 C701.56,557.30 700.54,556.00 699.85,556.00 C697.90,556.00 692.00,549.82 692.00,547.78 C692.00,546.75 690.91,545.54 689.50,545.00 C687.74,544.33 687.00,543.30 687.00,541.52 C687.00,539.54 686.50,539.00 684.64,539.00 C682.82,539.00 681.69,537.85 679.68,533.99 C676.08,527.04 672.04,521.97 669.29,520.92 C668.01,520.43 666.52,518.86 665.97,517.42 C665.42,515.98 664.11,514.58 663.06,514.30 C659.09,513.27 659.76,508.85 664.09,507.47 C665.22,507.11 666.00,505.95 666.00,504.63 C666.00,501.96 667.75,500.00 670.13,500.00 C671.09,500.00 672.18,499.01 672.56,497.80 C672.95,496.58 673.88,494.98 674.63,494.23 C675.38,493.47 675.98,492.33 675.96,491.68 C675.93,490.86 674.04,492.57 669.84,497.29 C670.39,496.67 670.93,496.04 671.48,495.43 C674.28,492.26 679.59,486.19 685.28,479.67 C681.39,484.22 678.90,487.22 678.60,487.76 C678.10,488.65 679.55,487.82 681.83,485.94 C684.10,484.05 685.97,482.11 685.98,481.63 C686.00,480.87 688.88,477.06 693.46,471.77 C694.54,470.53 695.81,470.21 697.98,470.65 C701.14,471.28 701.91,469.99 700.09,467.12 C699.14,465.61 703.40,460.00 705.50,460.00 C706.15,460.00 707.19,458.87 707.82,457.49 C708.45,456.10 710.09,454.46 711.47,453.83 C712.84,453.21 714.20,451.93 714.50,451.00 C714.79,450.07 717.99,446.20 721.60,442.40 C725.21,438.61 728.81,434.04 729.59,432.25 C730.38,430.46 731.68,429.00 732.48,429.00 C733.28,429.00 734.45,428.03 735.08,426.84 C736.85,423.54 748.03,410.00 749.00,410.00 C750.62,410.00 756.20,404.64 758.71,400.66 C760.11,398.46 763.16,394.59 765.49,392.08 C767.83,389.56 770.04,386.53 770.41,385.35 C770.77,384.17 773.98,380.57 777.53,377.35 C781.09,374.13 784.00,371.05 784.00,370.50 C784.00,369.95 785.63,368.13 787.62,366.46 C790.74,363.84 791.23,362.85 791.18,359.26 C791.08,351.64 790.20,351.00 779.71,350.96 C663.04,350.52 658.45,350.55 655.25,351.89 C653.46,352.63 652.00,353.89 652.00,354.68 C652.00,356.72 646.17,363.72 643.99,364.29 C642.99,364.55 642.02,365.83 641.83,367.12 C641.64,368.48 640.38,370.02 638.86,370.74 C637.40,371.44 635.93,373.12 635.59,374.49 C635.21,376.01 634.02,377.21 632.50,377.59 C630.92,377.99 629.29,379.70 627.95,382.38 C626.64,385.02 623.30,388.57 618.93,391.98 C614.05,395.80 612.00,398.06 612.00,399.63 C612.00,400.97 610.80,402.72 609.00,404.00 C607.35,405.17 606.00,406.75 606.00,407.49 C606.00,408.24 604.88,410.18 603.50,411.82 C602.12,413.45 601.00,415.23 601.00,415.77 C601.00,416.31 600.38,417.27 599.63,417.89 C598.59,418.75 597.96,418.66 596.99,417.49 C595.96,416.24 596.01,415.65 597.29,414.23 C598.16,413.28 599.33,411.25 599.91,409.73 C600.49,408.21 602.10,406.53 603.48,406.01 C605.17,405.36 606.00,404.29 606.00,402.74 C606.00,400.08 609.38,392.98 611.35,391.50 C612.08,390.95 614.56,386.58 616.86,381.80 C619.16,377.01 622.07,371.84 623.31,370.30 C628.76,363.57 629.27,358.59 624.94,354.44 C622.14,351.76 621.07,351.45 612.69,350.88 C607.63,350.54 583.70,350.47 559.50,350.74 L 515.50 351.22 L 512.28 354.83 C510.51,356.81 508.52,359.80 507.85,361.47 C507.18,363.14 505.59,365.77 504.32,367.33 C502.75,369.24 502.19,370.90 502.58,372.45 C503.02,374.24 502.46,375.25 500.08,376.94 C498.38,378.15 497.00,380.01 497.00,381.07 C497.00,382.13 496.66,383.00 496.23,383.00 C495.16,383.00 489.00,393.49 489.00,395.33 C489.00,396.16 487.88,398.18 486.50,399.82 C485.12,401.45 484.00,403.45 484.00,404.25 C484.00,405.05 482.88,406.92 481.50,408.41 C480.12,409.89 479.00,411.60 479.00,412.21 C479.00,414.32 474.04,423.77 472.65,424.30 C471.80,424.63 470.73,423.79 469.93,422.17 L 468.62 419.50 L 468.22 421.87 C468.01,423.17 468.32,424.72 468.92,425.32 C470.77,427.17 470.20,433.38 468.00,435.27 C466.90,436.21 466.00,437.59 466.00,438.34 C466.00,439.08 465.10,440.50 464.00,441.50 C462.90,442.50 462.00,443.85 462.00,444.52 C462.00,445.19 461.10,446.88 459.99,448.28 C458.89,449.69 457.71,452.21 457.37,453.89 C457.02,455.63 455.96,457.20 454.88,457.54 C453.85,457.87 453.00,459.03 453.00,460.12 C453.00,462.27 450.52,467.61 449.27,468.16 C448.84,468.35 446.54,470.98 444.16,474.00 C441.77,477.02 439.18,479.87 438.39,480.31 C437.18,480.99 437.27,481.53 438.92,483.63 C441.15,486.46 440.69,489.00 437.93,489.00 C436.61,489.00 435.76,490.17 434.98,493.06 C433.73,497.70 430.87,498.23 430.01,493.97 C429.73,492.60 428.70,490.35 427.72,488.99 C423.64,483.30 421.00,478.83 421.00,477.60 C421.00,476.87 419.44,474.31 417.53,471.90 C415.62,469.48 413.50,465.32 412.81,462.65 C411.95,459.29 410.90,457.53 409.42,456.97 C407.17,456.12 406.00,454.08 406.00,451.03 C406.00,450.04 404.86,448.48 403.47,447.57 C402.08,446.66 401.17,445.53 401.45,445.07 C401.74,444.61 401.11,443.13 400.05,441.79 C398.99,440.44 397.82,438.13 397.45,436.64 C397.07,435.16 395.92,433.49 394.87,432.93 C393.62,432.26 393.05,430.99 393.18,429.18 C393.30,427.68 392.50,425.11 391.41,423.47 C388.28,418.79 387.06,416.72 385.55,413.50 C384.78,411.85 383.21,409.93 382.07,409.24 C380.76,408.44 380.00,406.94 380.00,405.15 C380.00,403.56 379.10,401.50 377.96,400.47 C376.84,399.45 375.03,396.60 373.93,394.12 C372.84,391.64 370.72,388.01 369.22,386.06 C366.38,382.33 364.11,378.57 361.61,373.42 C360.79,371.73 359.41,369.76 358.56,369.05 C357.70,368.34 357.00,366.86 357.00,365.77 C357.00,364.00 354.93,360.77 350.61,355.83 C349.81,354.90 348.70,353.30 348.14,352.26 C347.16,350.43 345.13,350.37 293.33,350.43 L 239.53 350.50 L 238.15 353.37 C237.39,354.95 235.98,356.46 235.00,356.71 C234.03,356.97 232.80,358.13 232.28,359.30 C231.48,361.10 231.80,361.65 234.41,362.96 C236.83,364.17 237.62,365.35 238.12,368.44 C238.51,370.92 239.73,373.23 241.37,374.65 C243.12,376.15 244.00,377.91 244.00,379.89 C244.00,381.54 244.46,383.17 245.02,383.51 C245.58,383.86 247.27,386.42 248.77,389.21 C250.27,391.99 252.09,395.35 252.82,396.67 C253.55,397.99 255.01,399.61 256.07,400.28 C257.13,400.94 258.00,402.43 258.00,403.59 C258.00,404.74 258.90,406.50 260.00,407.50 C261.10,408.50 262.00,410.36 262.00,411.65 C262.00,412.93 262.90,414.55 264.00,415.23 C265.10,415.92 266.00,417.01 266.00,417.66 C266.00,418.31 267.15,420.22 268.56,421.89 C271.96,425.93 276.00,433.62 276.00,436.05 C276.00,437.33 276.68,438.00 278.00,438.00 C279.10,438.00 280.00,437.73 280.00,437.39 C280.00,437.35 279.95,437.23 279.86,437.04 C281.17,439.35 282.52,441.72 283.91,444.16 C282.24,441.32 281.22,439.64 281.10,439.56 C279.89,438.81 280.73,445.43 282.29,449.00 C283.14,450.92 284.95,453.56 286.33,454.84 C287.70,456.13 289.13,458.38 289.49,459.84 C289.86,461.31 290.74,463.17 291.46,464.00 C292.18,464.83 295.34,470.45 298.48,476.50 C301.62,482.55 305.16,488.99 306.35,490.80 C307.53,492.62 309.85,496.18 311.50,498.72 C313.82,502.28 315.43,503.60 318.57,504.51 C321.51,505.36 336.09,505.59 371.07,505.35 C397.71,505.17 420.95,505.28 422.73,505.61 C425.47,506.12 425.81,506.49 424.98,508.03 C424.45,509.03 423.50,512.24 422.87,515.17 C422.22,518.22 420.93,521.06 419.86,521.81 C418.84,522.53 418.00,523.75 418.00,524.54 C418.00,525.32 416.19,528.33 413.99,531.23 C411.78,534.13 409.53,538.13 408.98,540.12 C408.44,542.11 407.09,544.88 406.00,546.28 C404.90,547.67 404.00,549.55 404.00,550.44 C404.00,551.33 403.36,552.31 402.58,552.61 C401.80,552.91 400.46,554.88 399.62,556.99 C398.78,559.10 397.62,561.12 397.04,561.47 C396.47,561.83 396.00,563.24 396.00,564.60 C396.00,565.97 394.93,568.16 393.63,569.46 C392.33,570.77 390.98,572.88 390.63,574.17 C390.08,576.23 388.53,578.82 381.77,588.92 C380.83,590.34 378.48,594.49 376.56,598.15 C373.47,604.05 373.14,605.39 373.68,609.90 C374.04,612.96 374.77,615.00 375.52,615.00 C376.36,615.00 376.60,613.77 376.29,610.87 C376.83,612.93 378.18,615.89 380.37,619.80 C379.79,618.91 379.30,618.22 378.97,617.83 L 376.99 615.50 L 378.06 618.48 C381.68,628.59 386.38,637.65 388.50,638.60 C389.83,639.20 390.61,640.68 390.83,643.00 C391.01,644.92 392.03,647.31 393.08,648.29 C394.14,649.27 395.00,650.82 395.00,651.72 C395.00,652.63 396.00,654.43 397.22,655.73 C398.44,657.03 399.49,659.31 399.55,660.80 C399.62,662.69 400.48,663.90 402.38,664.83 C403.87,665.56 406.54,667.67 408.30,669.51 C411.70,673.07 412.36,673.31 415.46,672.09 C417.22,671.40 417.13,671.25 414.61,670.62 C412.85,670.17 411.43,669.61 410.09,668.63 C410.37,668.80 410.66,668.96 410.98,669.13 C414.01,670.75 416.80,671.00 432.09,671.00 C433.15,671.00 434.16,671.00 435.12,671.00 C443.83,671.03 448.51,671.04 452.13,669.08 C452.77,668.73 453.38,668.32 453.98,667.83 C453.34,668.36 452.68,668.81 451.99,669.18 C448.50,671.04 444.05,671.08 435.97,671.16 C435.22,671.17 434.43,671.18 433.60,671.19 C419.98,671.35 418.89,671.46 426.50,671.94 C438.70,672.70 450.87,672.42 454.50,671.29 ZM 639.57 487.85 C643.89,493.49 647.66,498.28 648.37,499.01 C650.11,500.79 653.17,504.61 655.13,507.31 C654.66,506.71 654.11,506.07 653.54,505.42 C651.13,502.68 650.07,502.01 650.04,503.19 C650.02,504.12 650.45,505.16 651.00,505.50 C651.55,505.84 652.00,506.70 652.00,507.41 C652.00,508.46 642.22,508.65 600.75,508.40 L 549.50 508.09 L 549.19 505.14 C548.98,503.12 549.49,501.77 550.80,500.85 C551.86,500.11 554.02,497.09 555.61,494.14 C557.20,491.19 559.65,486.69 561.06,484.14 C562.46,481.59 565.35,476.35 567.46,472.50 C569.58,468.65 571.92,464.61 572.66,463.53 C573.40,462.44 574.00,460.31 574.00,458.78 C574.00,457.25 574.41,456.00 574.92,456.00 C576.74,456.00 582.37,447.68 582.94,444.13 C583.38,441.39 584.06,440.42 585.70,440.19 C587.51,439.93 587.86,439.24 587.82,436.03 C587.75,431.22 588.49,430.00 591.49,430.00 C593.03,430.00 594.10,430.74 594.54,432.12 C594.91,433.29 596.73,435.58 598.58,437.21 C600.44,438.83 602.36,441.65 602.86,443.47 C603.82,446.94 605.17,448.80 611.12,454.83 C613.11,456.85 615.97,461.12 617.47,464.31 C619.19,467.97 621.07,470.46 622.54,471.02 C623.83,471.50 625.39,472.86 626.01,474.03 C626.64,475.20 628.02,477.02 629.08,478.08 C630.13,479.13 631.00,480.46 631.00,481.02 C631.00,483.24 641.23,495.00 643.15,495.00 C644.26,495.00 644.07,494.02 639.57,487.85 ZM 373.00 617.00 C373.00,615.90 372.58,615.00 372.06,615.00 C370.72,615.00 369.77,616.82 370.50,618.00 C371.55,619.69 373.00,619.11 373.00,617.00 ZM 583.50 585.00 C583.50,584.27 582.94,583.48 582.25,583.25 C581.51,583.00 581.00,583.71 581.00,585.00 C581.00,586.29 581.51,587.00 582.25,586.75 C582.94,586.52 583.50,585.73 583.50,585.00 ZM 272.45 423.98 C263.01,407.91 251.35,387.10 244.04,373.49 C249.26,382.98 258.04,398.58 272.45,423.98 ZM 557.00 504.94 C557.00,504.42 556.33,504.00 555.50,504.00 C553.95,504.00 553.51,505.18 554.64,506.31 C555.44,507.11 557.00,506.20 557.00,504.94 ZM 320.17 501.97 C324.55,502.79 336.99,502.96 376.86,502.98 C417.57,502.99 430.30,502.78 431.62,501.95 C430.30,502.78 417.60,503.00 377.01,503.00 C336.47,503.00 324.43,502.83 320.17,501.97 ZM 734.23 599.32 C750.29,617.75 762.67,632.10 771.64,642.69 C763.30,632.93 751.33,619.06 734.23,599.32 ZM 656.98 510.19 C656.99,510.21 656.99,510.23 656.99,510.25 C657.00,510.66 631.58,511.00 600.50,511.00 C631.08,511.00 656.19,510.64 656.98,510.19 ZM 376.45 606.54 C377.25,603.15 379.86,598.37 386.54,587.00 C380.41,597.43 377.47,603.05 376.45,606.54 ZM 386.19 629.81 C388.20,633.28 390.12,636.61 391.32,638.74 C391.88,639.73 392.42,640.68 392.94,641.60 C392.56,640.95 392.24,640.41 391.99,640.00 C390.72,637.90 388.29,633.63 386.19,629.81 ZM 400.75 655.33 C403.39,659.91 405.14,662.81 406.44,664.72 C404.92,662.61 403.20,659.73 400.96,655.70 ZM 667.30 500.18 C666.00,501.69 664.53,503.40 662.90,505.32 L 659.20 509.69 L 660.72 507.83 C661.75,506.58 664.35,503.56 667.30,500.18 ZM 417.59 476.31 C409.73,462.39 405.43,454.79 401.04,447.07 C405.84,455.48 412.03,466.42 417.59,476.31 ZM 550.97 522.33 C546.67,516.46 543.30,512.00 543.07,512.00 C543.34,512.00 546.20,515.76 550.97,522.33 ZM 237.02 359.53 C237.01,359.48 237.00,359.43 237.00,359.40 C237.00,358.32 237.70,356.44 238.56,355.22 C237.70,356.44 237.01,358.36 237.02,359.47 C237.02,359.49 237.02,359.51 237.02,359.53 ZM 789.99 665.84 C790.00,665.86 790.00,665.88 790.00,665.90 L 790.00 665.92 C790.00,665.90 790.00,665.87 789.99,665.84 Z" fill="rgb(29,46,58)"/>
        <path d="M 410.98 669.13 C407.50,667.26 407.07,666.60 391.32,638.74 C389.22,635.02 384.92,627.59 381.77,622.24 C377.94,615.72 376.04,611.40 376.02,609.16 C376.00,605.98 378.59,600.53 386.54,587.00 C388.32,583.97 393.35,574.97 397.72,567.00 C402.09,559.03 410.18,544.40 415.69,534.50 C421.20,524.60 427.51,513.12 429.72,509.00 C436.61,496.09 450.19,471.48 465.02,445.00 C472.88,430.98 482.08,414.33 485.48,408.00 C488.87,401.67 494.59,391.33 498.19,385.00 C501.78,378.67 506.33,370.31 508.30,366.40 C510.26,362.50 513.06,357.89 514.52,356.15 L 517.18 353.00 L 569.52 353.00 C615.77,353.00 622.04,353.18 623.43,354.57 C626.60,357.74 625.29,361.84 615.60,378.92 C610.44,388.04 600.37,406.30 593.24,419.50 C586.10,432.70 577.89,447.77 574.99,453.00 C572.09,458.23 564.79,471.50 558.78,482.50 C552.76,493.50 546.97,503.90 545.92,505.62 C544.86,507.33 544.00,509.25 544.00,509.87 C544.00,510.70 559.11,511.00 600.50,511.00 C631.58,511.00 657.00,510.66 656.99,510.25 C656.98,509.49 651.07,501.78 648.37,499.01 C647.57,498.18 642.79,492.10 637.77,485.50 C628.52,473.36 623.37,466.67 614.74,455.60 C607.42,446.21 595.66,430.96 594.14,428.88 C592.90,427.20 593.48,426.27 600.14,419.19 C609.26,409.50 627.89,387.94 642.88,369.73 C649.12,362.16 655.17,355.29 656.33,354.48 C658.14,353.21 667.57,353.00 722.57,353.00 C784.50,353.00 786.75,353.07 788.43,354.92 C791.81,358.66 793.70,356.17 746.41,410.08 C739.86,417.55 729.10,429.72 722.50,437.13 C715.90,444.54 703.53,458.64 695.00,468.48 C686.47,478.32 675.89,490.45 671.48,495.43 C667.06,500.42 662.22,506.00 660.72,507.83 L 657.99 511.17 L 662.72 516.83 C665.33,519.95 673.34,529.25 680.54,537.50 C687.73,545.75 702.36,562.58 713.06,574.91 C780.96,653.16 790.00,663.86 790.00,665.94 C790.00,667.05 788.93,668.65 787.63,669.51 C785.54,670.87 777.69,671.02 720.88,670.78 C668.42,670.55 656.12,670.25 654.45,669.13 C653.32,668.38 647.84,660.95 642.28,652.63 C633.33,639.24 623.22,624.67 605.78,600.04 C602.88,595.94 598.25,589.35 595.50,585.40 C567.17,544.66 543.85,512.00 543.07,512.00 C542.65,512.00 534.73,525.84 525.46,542.75 C516.19,559.66 507.72,575.08 506.64,577.00 C504.34,581.08 481.77,621.33 466.85,647.96 C453.28,672.17 455.05,671.00 432.09,671.00 C416.80,671.00 414.01,670.75 410.98,669.13 ZM 318.50 501.47 C316.36,500.42 313.92,497.19 310.03,490.25 C307.02,484.89 297.40,467.90 288.64,452.50 C245.04,375.77 237.03,361.34 237.02,359.47 C237.01,358.36 237.70,356.44 238.56,355.22 L 240.11 353.00 L 292.87 353.00 L 345.63 353.00 L 348.20 355.75 C349.61,357.26 351.55,360.08 352.51,362.00 C353.47,363.92 355.72,367.98 357.51,371.00 C359.31,374.02 363.60,381.45 367.05,387.50 C373.93,399.57 387.18,422.80 393.01,433.00 C401.84,448.45 405.43,454.78 417.98,477.00 C425.28,489.92 431.47,501.06 431.73,501.75 C432.11,502.74 420.74,503.00 376.86,502.98 C330.00,502.96 321.04,502.73 318.50,501.47 Z" fill="rgb(51,159,166)"/>
    </g>
</svg>